<svg width="36" height="36" viewBox="0 0 36 36" fill="none" xmlns="http://www.w3.org/2000/svg">
<path fill-rule="evenodd" clip-rule="evenodd" d="M0.866669 7.11521V0.842041C19.9078 0.842041 35.358 16.2922 35.358 35.3334H29.0848C29.0848 19.7502 16.4498 7.11521 0.866669 7.11521ZM0.866669 19.6615V13.3884C12.9918 13.3884 22.8117 23.2082 22.8117 35.3334H16.5385C16.5385 26.6884 9.51167 19.6615 0.866669 19.6615ZM10.5313 30.501C10.5313 33.1699 8.36783 35.3334 5.699 35.3334C3.03018 35.3334 0.866669 33.1699 0.866669 30.501C0.866669 27.8322 3.03018 25.6687 5.699 25.6687C8.36783 25.6687 10.5313 27.8322 10.5313 30.501Z" fill="#CCCCCC"/>
</svg>
